<svg width="101" height="100" viewBox="0 0 101 100" fill="none" xmlns="http://www.w3.org/2000/svg">
<path d="M91.2176 86.9004C91.2176 87.9883 90.7858 89.0305 90.0168 89.7996C89.2477 90.5687 88.2056 91.0005 87.1176 91.0005H13.3168C11.8519 91.0005 10.4984 90.2192 9.76599 88.9505C9.03357 87.6825 9.03357 86.1192 9.76599 84.8505C10.4984 83.5825 11.8519 82.8005 13.3168 82.8005H19.2082L28.1789 45.9001H72.2531L81.2199 82.8005H87.116C88.2039 82.8005 89.2461 83.233 90.0152 84.0013C90.7843 84.7704 91.2161 85.8133 91.2161 86.9005L91.2176 86.9004ZM59.4129 11.6621C59.1207 10.8809 58.5958 10.2072 57.91 9.73187C57.2248 9.2558 56.41 9.00098 55.5754 9.00098H44.8584C44.0237 9.00098 43.2097 9.2558 42.5238 9.73187C41.8379 10.2072 41.3138 10.8809 41.0208 11.6621L34.329 29.5012H65.1454L66.1457 29.6118L59.4129 11.6621Z" fill="#FF3B30"/>
</svg>
